PathFileType	4	(X/Y/Z)	pose_F01_0-95.trc
DataRate	CameraRate	NumFrames	NumMarkers	Units	OrigDataRate	OrigDataStartFrame	OrigNumFrames
30	30	9	21	m	30	59	95
Frame#	Time	CHip			RHip			RKnee			RAnkle			RBigToe			RSmallToe			RHeel			LHip			LKnee			LAnkle			LBigToe			LSmallToe			LHeel			Neck			Nose			RShoulder			RElbow			RWrist			LShoulder			LElbow			LWrist			
		X1	Y1	Z1	X2	Y2	Z2	X3	Y3	Z3	X4	Y4	Z4	X5	Y5	Z5	X6	Y6	Z6	X7	Y7	Z7	X8	Y8	Z8	X9	Y9	Z9	X10	Y10	Z10	X11	Y11	Z11	X12	Y12	Z12	X13	Y13	Z13	X14	Y14	Z14	X15	Y15	Z15	X16	Y16	Z16	X17	Y17	Z17	X18	Y18	Z18	X19	Y19	Z19	X20	Y20	Z20	X21	Y21	Z21	
59	1.9666666666666666	-0.3052932658355689	1.8849953943865796	-0.5461826339846462	-0.31729721323133114	1.8794997198269139	-0.4895242919249445	-0.3264472664129763	1.7395785289261918	-0.4317429216157165													-0.2912838384412159	1.8911669430327018	-0.6082952091276075	-0.23897153465697604	1.7638355370020706	-0.729368040960904	-0.253093107029543	1.6422463480597265	-0.7263220785422395	-0.24101748814388924	1.6003396575087554	-0.7219903137502093	-0.2354860569718144	1.6073355472560678	-0.7570578153261979	-0.26091162479911184	1.6382621986162484	-0.7107211543505683	-0.3173701483059149	2.0380428704244786	-0.5415230085561685	-0.30921614008998327	2.098325298767452	-0.5328325425480379	-0.33616264299987597	2.0285963641931284	-0.4598251786797919	-0.3314958365699641	1.9737669581097428	-0.38041516530692354	-0.3085585581776381	2.0151578603852967	-0.3484534394911956	-0.2989841583064344	2.04979065820242	-0.6237077466449888	-0.26706499110379656	2.0058468872491915	-0.645492851109589	-0.24115178261282952	2.028940771574916	-0.576278124929104
60	2.0	-0.3073522038346575	1.8852658795098833	-0.5441400218400941	-0.3213861931382021	1.8806030143668704	-0.48560683229460533	-0.32793635896051926	1.7404994735061647	-0.4278557885312023													-0.29426922686374496	1.8900686918517617	-0.6090010436065382	-0.23897153465697604	1.7638355370020706	-0.729368040960904	-0.253093107029543	1.6422463480597265	-0.7263220785422395	-0.24101748814388924	1.6003396575087554	-0.7219903137502093	-0.2354860569718144	1.6073355472560678	-0.7570578153261979	-0.26091162479911184	1.6382621986162484	-0.7107211543505683	-0.320581773930474	2.034066650081766	-0.550526526312484	-0.31045569886646524	2.093855063750234	-0.5350914151531848	-0.33570382998258774	2.0276173778939244	-0.4735099896680419	-0.33370197253522604	1.9749931518757842	-0.3868956898704579	-0.3109950298162495	2.0194343876871512	-0.3422123411595264	-0.2990778773000825	2.044992981051492	-0.6311756207992082	-0.2690916138366684	2.0084588058155783	-0.6435530474010333	-0.2430186364511316	2.030319394453085	-0.5823564421043311
61	2.033333333333333	-0.3063704734811151	1.87895480004023	-0.548613353470316	-0.3184639787673784	1.8743295317845838	-0.4921193716915895	-0.32793635896051926	1.7404994735061647	-0.4278557885312023													-0.2931790892212361	1.883500762888898	-0.6135616523767193	-0.23897153465697604	1.7638355370020706	-0.729368040960904	-0.253093107029543	1.6422463480597265	-0.7263220785422395	-0.24101748814388924	1.6003396575087554	-0.7219903137502093	-0.2354860569718144	1.6073355472560678	-0.7570578153261979	-0.26091162479911184	1.6382621986162484	-0.7107211543505683	-0.32180410182177555	2.0309111791049705	-0.5616713421123691	-0.3147007453402402	2.089480488669361	-0.5463910128915582	-0.3374274984230317	2.0222722632702297	-0.4848600768714548	-0.3306461437623257	1.9728267205689718	-0.39976224406006927	-0.30992373602504514	2.019172927271618	-0.36072214723344304	-0.30226767773049534	2.0390554207476503	-0.6398273558290888	-0.2695739591318011	2.0072162811345984	-0.6542194249433488	-0.2429599776784307	2.032892613524789	-0.5828109137256657
62	2.066666666666667	-0.306953998752928	1.8705140370501723	-0.5593451014664805	-0.31611880158146355	1.8676242564560706	-0.5019164539269064	-0.32793635896051926	1.7404994735061647	-0.4278557885312023													-0.29438296180089574	1.8763033798081235	-0.6252815246621266	-0.23897153465697604	1.7638355370020706	-0.729368040960904	-0.253093107029543	1.6422463480597265	-0.7263220785422395	-0.24101748814388924	1.6003396575087554	-0.7219903137502093	-0.2354860569718144	1.6073355472560678	-0.7570578153261979	-0.26091162479911184	1.6382621986162484	-0.7107211543505683	-0.3188963854281842	2.023302173934163	-0.5760082664693074	-0.31488839711824623	2.0846302856790673	-0.5539666566886575	-0.3339587131360287	2.0179716481027747	-0.5050351807985645	-0.32452823390934826	1.9733712054606891	-0.4281624259344167	-0.3062146531072927	2.020914058519515	-0.38798193439400386	-0.3019944760953989	2.032611835501338	-0.6555285625689746	-0.26576540763238704	1.9973201295859209	-0.6578192975190487	-0.2447653641039572	2.029534082816147	-0.5883828163644136
63	2.1	-0.3086432682271547	1.8568995864499205	-0.5698481806937977	-0.32106619592444424	1.8564106144825796	-0.5136069088857981	-0.32793635896051926	1.7404994735061647	-0.4278557885312023													-0.29558683438055544	1.869105996727349	-0.6370013969475339	-0.23897153465697604	1.7638355370020706	-0.729368040960904	-0.253093107029543	1.6422463480597265	-0.7263220785422395	-0.24101748814388924	1.6003396575087554	-0.7219903137502093	-0.2354860569718144	1.6073355472560678	-0.7570578153261979	-0.26091162479911184	1.6382621986162484	-0.7107211543505683	-0.3162243892156304	2.013879626732543	-0.598926161789964	-0.3103670062779385	2.0762008632269513	-0.5714573727606382	-0.33449534341119536	2.0097523734175184	-0.5207560253294893	-1.7031708967485377	1.877036318612964	1.0561218422488396	-0.3116739337220114	1.9976601655588968	-0.4126613069758713	-0.2998292170060244	2.0222810389558297	-0.6730550870651082	-0.26335946993428166	1.9894313285064378	-0.6671436116996132	-0.24648341094263468	2.022220596402145	-0.6013830766529367
64	2.1333333333333333	-0.30968457158539064	1.8538778937561993	-0.5854741802298288	-0.3222746446230493	1.852524841936189	-0.525037525269327	-0.32793635896051926	1.7404994735061647	-0.4278557885312023													-0.2967907069602151	1.8619086136465746	-0.6487212692329413	-0.23897153465697604	1.7638355370020706	-0.729368040960904	-0.253093107029543	1.6422463480597265	-0.7263220785422395	-0.24101748814388924	1.6003396575087554	-0.7219903137502093	-0.2354860569718144	1.6073355472560678	-0.7570578153261979	-0.26091162479911184	1.6382621986162484	-0.7107211543505683	-0.3098699045377461	2.01032636662173	-0.6131933827916372	-0.30512604460843934	2.0752446758055885	-0.5885923530579658	-0.3254526762878397	2.006936260282303	-0.5337105696608551	-0.3254057205491188	1.9565887980136674	-0.44219837088988784	-0.301754283992798	1.9959124327686235	-0.4299519009384002	-0.2951566777872837	2.014952552265232	-0.693121537148786	-1.3005672655192875	1.8609624164109453	0.3397801387611975	-0.24130194549190365	2.0115972600382768	-0.6271987096749192
65	2.1666666666666665	-0.3107258749436265	1.850856201062478	-0.6011001797658598	-0.3234830933216543	1.8486390693897985	-0.536468141652856	-0.32793635896051926	1.7404994735061647	-0.4278557885312023													-0.29799457953987474	1.8547112305658	-0.6604411415183485	-0.23897153465697604	1.7638355370020706	-0.729368040960904	-0.253093107029543	1.6422463480597265	-0.7263220785422395	-0.24101748814388924	1.6003396575087554	-0.7219903137502093	-0.2354860569718144	1.6073355472560678	-0.7570578153261979	-0.26091162479911184	1.6382621986162484	-0.7107211543505683	-0.3055003079755587	2.011104860580623	-0.6258110755490753	-0.3008825600799167	2.0756679781624974	-0.6010091587885545	-0.32251049997871184	2.004666328464453	-0.5407410336300175	-0.3252881203108651	1.9590579453293449	-0.4426260296578648	-0.2974603972143908	2.002142098148346	-0.43432395228463777	-0.2891990037411782	2.015326076446359	-0.7109224100618438	-0.26389830819478216	1.9655259835916308	-0.720706939773732	-0.24169927221191875	1.9991384572467024	-0.6538502768777265
66	2.2	-0.30770478020701747	1.8580187110109723	-0.6091790856545599	-0.3216530053428922	1.8551355616809966	-0.5477172260965615	-0.32793635896051926	1.7404994735061647	-0.4278557885312023													-0.2946378573055381	1.8592725009332998	-0.6684366945802166	-0.23897153465697604	1.7638355370020706	-0.729368040960904	-0.253093107029543	1.6422463480597265	-0.7263220785422395	-0.24101748814388924	1.6003396575087554	-0.7219903137502093	-0.2354860569718144	1.6073355472560678	-0.7570578153261979	-0.26091162479911184	1.6382621986162484	-0.7107211543505683	-0.30537430922091013	2.0153175861828743	-0.6352108481564613	-0.29664244253229355	2.0762214139032578	-0.6055529903687821	-0.32066985465470527	2.012065014111563	-0.5532300545863066	-0.32489479967751134	1.968756680041775	-0.4358238401087285	-0.2942206425207861	2.013222882388327	-0.4355543471707486	-0.28798232841556287	2.019644727716521	-0.7173127053056908	-0.263835414536228	1.9623548171288765	-0.7402731692738947	-0.23433303996429417	1.9980414383565432	-0.6859350234744297
67	2.2333333333333334	-0.30958632310436784	1.868555633678775	-0.6083036738716776	-0.32351120756942797	1.866116253501432	-0.5468586370865132	-0.32793635896051926	1.7404994735061647	-0.4278557885312023													-0.2976834033490615	1.87180890890955	-0.6705433253858211	-0.23897153465697604	1.7638355370020706	-0.729368040960904	-0.253093107029543	1.6422463480597265	-0.7263220785422395	-0.24101748814388924	1.6003396575087554	-0.7219903137502093	-0.2354860569718144	1.6073355472560678	-0.7570578153261979	-0.26091162479911184	1.6382621986162484	-0.7107211543505683	-0.3027455849483388	2.0256548906599856	-0.638349891630587	-0.2929806081043465	2.0881424209729613	-0.6138978896264369	-0.31993507915775826	2.02222279482665	-0.5538752967111836	-0.3254203381468163	1.9776408181953598	-0.4317844792441783	-0.2927357256382293	2.0218768409659464	-0.4332963851449902	-0.28193842966102356	2.0277431261943177	-0.7272152614269067	-0.2656986624148515	1.9711124213396163	-0.7385234987883396	-0.23084303408956194	1.9995650004473449	-0.6936099135687347
